<svg xmlns="http://www.w3.org/2000/svg" width="100" height="25" viewBox="0 0 100 25">
  <path fill="#000000" fill-rule="evenodd" d="M0,24.5310245 L2.96242775,0.468975469 L10.6575145,0.468975469 C13.7644509,0.468975469 15.2095376,0.793650794 16.3656069,1.6955267 C17.5939306,2.63347763 18.2803468,4.25685426 18.2803468,6.06060606 C18.2803468,7.43145743 17.882948,8.8023088 17.1965318,9.81240981 C16.4739884,10.8585859 15.8959538,11.3275613 14.3424855,12.012987 C15.8598266,12.3737374 16.4378613,12.6262626 17.1965318,13.2756133 C18.2442197,14.1774892 18.8222543,15.5844156 18.8222543,17.2799423 C18.8222543,20.2020202 17.015896,22.8354978 14.234104,23.9177489 C13.0419075,24.3867244 11.849711,24.5310245 9.57369942,24.5310245 L0,24.5310245 Z M9.57369942,5.26695527 L8.45375723,5.26695527 L7.87572254,10.02886 L8.74277457,10.02886 C11.416185,10.02886 12.5,9.23520924 12.5,7.35930736 C12.5,5.73593074 11.849711,5.26695527 9.57369942,5.26695527 Z M9.14017341,14.5382395 L7.29768786,14.5382395 L6.68352601,19.7330447 L8.34537572,19.7330447 C11.3439306,19.7330447 12.5,18.8672439 12.5,16.8109668 C12.5,15.04329 11.7774566,14.5382395 9.14017341,14.5382395 Z M39.1618497,13.2756133 C38.2947977,14.2135642 37.6445087,14.6103896 35.982659,15.1875902 L41.6184971,24.5310245 L34.5375723,24.5310245 L29.0462428,14.97114 L27.8901734,24.5310245 L21.7846821,24.5310245 L24.7471098,0.468975469 L32.5867052,0.468975469 C35.8742775,0.468975469 37.8973988,1.11832612 39.2702312,2.56132756 C40.4263006,3.78787879 41.1127168,5.77200577 41.1127168,7.93650794 C41.1127168,10.1010101 40.4624277,11.9047619 39.1618497,13.2756133 Z M31.3945087,5.3030303 L30.2384393,5.3030303 L29.4797688,11.4718615 L30.5635838,11.4718615 C33.4898844,11.4718615 34.8265896,10.3896104 34.8265896,8.11688312 C34.8265896,6.02453102 33.9595376,5.3030303 31.3945087,5.3030303 Z M47.1459538,0.468975469 L44.183526,24.5310245 L50.2890173,24.5310245 L53.2514451,0.468975469 L47.1459538,0.468975469 Z M68.7861272,0 C61.416185,0 55.6358382,5.73593074 55.6358382,13.0591631 C55.6358382,20.0577201 60.6213873,25 67.7384393,25 C69.5809249,25 70.7731214,24.7835498 73.4104046,23.8455988 L74.1690751,17.7128427 C72.2904624,18.7590188 70.5202312,19.2279942 68.6416185,19.2279942 C64.6315029,19.2279942 61.8858382,16.6305916 61.8858382,12.7705628 C61.8858382,8.69408369 65.0289017,5.77200577 69.4725434,5.77200577 C71.6763006,5.77200577 73.5910405,6.49350649 75.3612717,7.97258297 L76.083815,2.02020202 C73.5187861,0.577200577 71.3872832,0 68.7861272,0 Z M80.2384393,0.468975469 L77.2760116,24.5310245 L83.3815029,24.5310245 L84.7182081,13.6724387 C85.1878613,14.6103896 85.8742775,15.8730159 86.5245665,16.8470418 L91.6907514,24.5310245 L99.0245665,24.5310245 L90.7875723,12.7344877 L100,0.468975469 L92.9913295,0.468975469 L85.0433526,11.002886 L86.3439306,0.468975469 L80.2384393,0.468975469 Z"/>
</svg>
